<?xml version="1.0" encoding="UTF-8" standalone="no"?>
<svg
   xmlns:dc="http://purl.org/dc/elements/1.1/"
   xmlns:cc="http://creativecommons.org/ns#"
   xmlns:rdf="http://www.w3.org/1999/02/22-rdf-syntax-ns#"
   xmlns:svg="http://www.w3.org/2000/svg"
   xmlns="http://www.w3.org/2000/svg"
   xmlns:xlink="http://www.w3.org/1999/xlink"
   id="svg176"
   version="1.1"
   viewBox="0 0 153.029 60"
   height="60"
   width="153.029">
  <metadata
     id="metadata180">
    <rdf:RDF>
      <cc:Work
         rdf:about="">
        <dc:format>image/svg+xml</dc:format>
        <dc:type
           rdf:resource="http://purl.org/dc/dcmitype/StillImage" />
        <dc:title></dc:title>
      </cc:Work>
    </rdf:RDF>
  </metadata>
  <defs
     id="defs5">
    <path
       d="M107.935 46.761h3.626c.858 0 1.924-.602 2.366-1.341l3.053-5.082c.361-.745.349-1.829-.063-2.516l-1.804-2.985-7.178 11.924z"
       id="a" />
  </defs>
  <clipPath
     id="b">
    <use
       id="use7"
       overflow="visible"
       xlink:href="#a" />
  </clipPath>
  <defs
     id="defs59">
    <path
       d="M111.832 32.087l-8.062 13.48c-.312.667.012 1.194.811 1.194h3.354l7.179-11.924-3.282-5.431c.443.735.443 1.942 0 2.681"
       id="c" />
  </defs>
  <clipPath
     id="d">
    <use
       id="use61"
       overflow="visible"
       xlink:href="#c" />
  </clipPath>
  <defs
     id="defs113">
    <path
       d="M104.581 14.728c-.862 0-1.203.605-.76 1.34l13.096 21.753c.412.687.425 1.771.063 2.516l3.184-5.299-12.228-20.311h-3.355v.001z"
       id="e" />
  </defs>
  <clipPath
     id="f">
    <use
       id="use115"
       overflow="visible"
       xlink:href="#e" />
  </clipPath>
  <defs
     id="defs125">
    <path
       d="M107.937 14.728l12.228 20.311 1.773-2.953c.442-.739.442-1.946 0-2.682l-8.011-13.337c-.443-.736-1.509-1.34-2.366-1.34l-3.624.001z"
       id="g" />
  </defs>
  <clipPath
     id="h">
    <use
       id="use127"
       overflow="visible"
       xlink:href="#g" />
  </clipPath>
  <g
     id="flowRoot4481"
     style="font-style:normal;font-weight:normal;font-size:40px;line-height:1.25;font-family:sans-serif;letter-spacing:0px;word-spacing:0px;fill:#000000;fill-opacity:1;stroke:none"
     transform="matrix(0.62486663,0,0,0.62486663,4.6184995,0.22473832)"
     aria-label="SPONSOR">
    <path
       id="path26"
       style=""
       d="m 46.175781,40.826172 v 3.847656 q -2.246094,-1.074219 -4.238281,-1.601562 -1.992188,-0.527344 -3.847656,-0.527344 -3.222657,0 -4.980469,1.25 -1.738281,1.25 -1.738281,3.554687 0,1.933594 1.152343,2.929688 1.171875,0.976562 4.414063,1.582031 l 2.382812,0.488281 q 4.414063,0.839844 6.503907,2.96875 2.109375,2.109375 2.109375,5.664063 0,4.238281 -2.851563,6.425781 -2.832031,2.1875 -8.320312,2.1875 -2.070313,0 -4.414063,-0.46875 -2.324219,-0.46875 -4.824219,-1.386719 v -4.0625 q 2.402344,1.347657 4.707032,2.03125 2.304687,0.683594 4.53125,0.683594 3.378906,0 5.214843,-1.328125 1.835938,-1.328125 1.835938,-3.789062 0,-2.148438 -1.328125,-3.359375 -1.308594,-1.210938 -4.316406,-1.816407 l -2.402344,-0.46875 q -4.414063,-0.878906 -6.386719,-2.753906 -1.972656,-1.875 -1.972656,-5.214844 0,-3.867187 2.714844,-6.09375 2.734375,-2.226562 7.519531,-2.226562 2.050781,0 4.179687,0.371094 2.128907,0.371093 4.355469,1.113281 z" />
    <path
       id="path28"
       style=""
       d="m 58.03125,43.111328 v 10.957031 h 4.960937 q 2.753907,0 4.257813,-1.425781 1.503906,-1.425781 1.503906,-4.0625 0,-2.617187 -1.503906,-4.042969 -1.503906,-1.425781 -4.257813,-1.425781 z m -3.945313,-3.242187 h 8.90625 q 4.902344,0 7.402344,2.226562 2.519531,2.207031 2.519531,6.484375 0,4.316406 -2.519531,6.523438 -2.5,2.207031 -7.402344,2.207031 H 58.03125 v 11.71875 h -3.945313 z" />
    <path
       id="path30"
       style=""
       d="m 90.0625,42.544922 q -4.296875,0 -6.835938,3.203125 -2.519531,3.203125 -2.519531,8.730469 0,5.507812 2.519531,8.710937 2.539063,3.203125 6.835938,3.203125 4.296875,0 6.796875,-3.203125 2.519531,-3.203125 2.519531,-8.710937 0,-5.527344 -2.519531,-8.730469 -2.5,-3.203125 -6.796875,-3.203125 z m 0,-3.203125 q 6.132812,0 9.804687,4.121094 3.671873,4.101562 3.671873,11.015625 0,6.894531 -3.671873,11.015625 -3.671875,4.101562 -9.804687,4.101562 -6.152344,0 -9.84375,-4.101562 -3.671875,-4.101563 -3.671875,-11.015625 0,-6.914063 3.671875,-11.015625 3.691406,-4.121094 9.84375,-4.121094 z" />
    <path
       id="path32"
       style=""
       d="m 109.71094,39.869141 h 5.3125 l 12.92969,24.394531 V 39.869141 h 3.82812 v 29.160156 h -5.3125 L 113.53906,44.634766 v 24.394531 h -3.82812 z" />
    <path
       id="path34"
       style=""
       d="m 157.11328,40.826172 v 3.847656 q -2.24609,-1.074219 -4.23828,-1.601562 -1.99219,-0.527344 -3.84766,-0.527344 -3.22265,0 -4.98047,1.25 -1.73828,1.25 -1.73828,3.554687 0,1.933594 1.15235,2.929688 1.17187,0.976562 4.41406,1.582031 l 2.38281,0.488281 q 4.41406,0.839844 6.50391,2.96875 2.10937,2.109375 2.10937,5.664063 0,4.238281 -2.85156,6.425781 -2.83203,2.1875 -8.32031,2.1875 -2.07031,0 -4.41406,-0.46875 -2.32422,-0.46875 -4.82422,-1.386719 v -4.0625 q 2.40234,1.347657 4.70703,2.03125 2.30469,0.683594 4.53125,0.683594 3.3789,0 5.21484,-1.328125 1.83594,-1.328125 1.83594,-3.789062 0,-2.148438 -1.32813,-3.359375 -1.30859,-1.210938 -4.3164,-1.816407 l -2.40235,-0.46875 q -4.41406,-0.878906 -6.38671,-2.753906 -1.97266,-1.875 -1.97266,-5.214844 0,-3.867187 2.71484,-6.09375 2.73438,-2.226562 7.51953,-2.226562 2.05079,0 4.17969,0.371094 2.12891,0.371093 4.35547,1.113281 z" />
    <path
       id="path36"
       style=""
       d="m 176.85937,42.544922 q -4.29687,0 -6.83593,3.203125 -2.51953,3.203125 -2.51953,8.730469 0,5.507812 2.51953,8.710937 2.53906,3.203125 6.83593,3.203125 4.29688,0 6.79688,-3.203125 2.51953,-3.203125 2.51953,-8.710937 0,-5.527344 -2.51953,-8.730469 -2.5,-3.203125 -6.79688,-3.203125 z m 0,-3.203125 q 6.13282,0 9.80469,4.121094 3.67188,4.101562 3.67188,11.015625 0,6.894531 -3.67188,11.015625 -3.67187,4.101562 -9.80469,4.101562 -6.15234,0 -9.84375,-4.101562 -3.67187,-4.101563 -3.67187,-11.015625 0,-6.914063 3.67187,-11.015625 3.69141,-4.121094 9.84375,-4.121094 z" />
    <path
       id="path38"
       style=""
       d="m 210.33594,55.357422 q 1.26953,0.429687 2.46093,1.835937 1.21094,1.40625 2.42188,3.867188 l 4.00391,7.96875 h -4.23829 l -3.73046,-7.480469 q -1.44532,-2.929687 -2.8125,-3.886719 -1.34766,-0.957031 -3.69141,-0.957031 h -4.29688 v 12.324219 h -3.94531 V 39.869141 h 8.90625 q 5,0 7.46094,2.089843 2.46094,2.089844 2.46094,6.308594 0,2.753906 -1.28907,4.570313 -1.26953,1.816406 -3.71093,2.519531 z m -9.88282,-12.246094 v 10.351563 h 4.96094 q 2.85156,0 4.29688,-1.308594 1.46484,-1.328125 1.46484,-3.886719 0,-2.558594 -1.46484,-3.847656 -1.44532,-1.308594 -4.29688,-1.308594 z" />
  </g>
</svg>
