<svg version="1" xmlns="http://www.w3.org/2000/svg" width="2666.667" height="2666.667" viewBox="0 0 2000.000000 2000.000000"><path d="M499.5 249.8L.5 499.5v1001l499.7 250 499.7 250 499.8-250 499.8-250v-1001l-499-249.7C1226.1 112.5 1000.8.1 1000 .1c-.8 0-226 112.4-500.5 249.7zm999.3 3.5L1996 502v996l-498 249-498 249-498-249L4 1498V502l497.8-249C775.5 116.1 1000 4.2 1000.5 4.3c.6.1 224.8 112.1 498.3 249z"/><path d="M529.2 294.8L60 529.5v941l470 235 470 235 470-235 470-235v-941l-469.5-234.8C1212.3 165.6 1000.4 60 999.7 60.1c-.6 0-212.4 105.6-470.5 234.7zm1002.8 92c7.5 7.5 7.6 16.4.4 31-8.9 18.2-27.8 38.8-82.7 90.6-31.3 29.6-42.8 43.2-41.3 49 1.9 7.8 21.7 5.1 65.6-8.9 22.8-7.2 49.2-12.7 59.8-12.3 7 .3 7.7.5 8 2.4.7 4.9-15.4 16-60.8 41.6-124.1 70.3-201.4 133.4-248.8 203.1-40.5 59.7-63.4 128.5-76.6 230.2-3.2 24.8-6 52.7-9.1 90.9-3.2 39.2-5.2 48-15.5 68.6-16.8 33.6-49.2 66.2-81.6 82-26.9 13.1-50.3 15.8-77.3 8.9-11.8-3.1-28.4-11.6-36.6-19-27.3-24.3-39.9-59.5-39.9-111.4-.1-49.9 9.2-86.4 35.9-140.3 14.6-29.6 26.1-48.9 46.6-77.7 36.6-51.5 73.8-91.7 170.9-184.7 63.9-61.1 94.2-92.2 120.6-123.8 11.5-13.8 14.7-18 13.7-18-3.2 0-90.9 42.4-126.3 61-166.7 87.5-270 172.1-325.9 266.7-8.6 14.5-18.3 34.6-24.1 49.8-12.3 32.2-20.6 42.6-30.4 38-11.7-5.6-22.6-36.9-25.8-74.2-2.7-32 3.5-50.2 26.8-79.6 68-85.7 280.4-224.5 600.4-392.2 53.2-27.9 147-75.5 148.9-75.5.7 0 3 1.7 5.1 3.8zm-780.1 18.7c39.2 5.6 68.3 20.4 97.7 49.9 14.6 14.7 23.4 26.4 31.3 41.6 11.9 23.1 16.4 40.9 16.4 65 .1 23.1-3.9 39.4-14.4 60-18 35.2-51.7 59.9-94.2 69.2-8.9 1.9-13.2 2.2-33.2 2.2-24.9 0-27.4-.3-46.5-6.5-46.7-15.3-89.5-48.5-118.7-92.2-8.4-12.7-19.1-33.4-23.9-46.4l-3.7-10.1-10.4-5.1c-31.7-15.6-66.8-24.7-110.9-28.6-22.4-2-70.4-2.2-121-.5-20.4.7-37.7 1.1-38.5.8-1.7-.6 29.6-8.8 50.6-13.3 62-13.3 119.9-19 203.2-20.2l45.2-.6 2.7-3.9c4.5-6.5 24.4-24.9 33.5-31 24-16.2 51.1-26.2 82.4-30.7 10.1-1.4 41-1.2 52.4.4zM689 718.1c12.3 9.3 22.6 13.6 38.5 16.4 7.3 1.3 45.2 3.3 64.8 3.5h3.9l-10.4 10.2c-32.1 31.9-50 68.1-55.9 113.3-1.7 13-1.4 44.5.5 60.5 7.1 58.7 30.5 125.2 75 212.5 19.8 38.9 31.1 59.4 75.8 137.8 52.9 92.8 76.1 135.9 91.1 169.3 2.5 5.5 12.3 26.7 21.8 47 20.4 43.9 26.1 56.6 34.4 77.9 18.1 46.2 27.8 88 31.6 135.5.6 8 1.4 15.2 1.7 16 1.2 3.4 6.5-34.1 8.3-58.9 1.5-20.4.7-64.6-1.6-82.6-9.9-81.6-36.5-151.4-102.1-268.1-6.8-12.2-12.4-22.4-12.4-22.7 0-.7 11.4 2.4 25.5 6.9 41.3 13.4 73.2 31.7 99.4 56.9 35.2 33.9 55.4 75.6 63.8 132 2.3 15.2 2.6 73.5.5 91-6.4 53.6-17.8 102.2-38.2 163.5-9.5 28.7-16.3 47.1-32.8 88.4-14.3 35.8-13.1 34.8-15.1 13.4-5.6-59.5-31.2-140.7-72.2-229.3-61.7-133.2-172.8-308.1-294.1-463.2-17.3-22.1-22.6-30.2-39-58.8-37.3-65-59.8-124.6-66.2-175-6.6-51.7 1.2-95.8 25.3-143.5 8.8-17.4 14.1-26.4 31.8-54.7l14.6-23.2 12.6 11.6c6.9 6.3 15.5 13.7 19.1 16.4z"/><path d="M655.6 436.6c-30 5.4-52.6 20.8-64.1 43.7-5.4 10.9-7.5 19.8-7.5 32.7 0 44.7 34.2 85.9 85.5 102.9 17.6 5.8 29.3 7.5 48.4 6.8 28.7-1 48.8-8.5 61.6-23 6.8-7.7 13.2-21.2 15.6-33.2 3-14.4 2.3-37.5-1.6-52.4-10-38.6-30.8-60.3-69.5-72.5-19.7-6.3-49.4-8.4-68.4-5zm-5.7 40.9c10.3 3.6 15.2 10.5 15.9 22.4.2 4.2-.1 10.4-.8 13.6-1 5.2-1.9 6.7-6.4 11.1-6.6 6.4-13.1 8.8-23.6 8.9-11.2 0-15.9-1.7-23.5-8.8-7.9-7.2-11.5-13.6-11.5-20.6 0-6.2 1.2-9.4 5.5-14.7 3.6-4.4 14.5-10.7 21.1-12.3 6.2-1.4 18.7-1.3 23.3.4zM551.8 483.6c-3.4 1.8-3.6 4.8-.5 6.8 2.5 1.7 13.8 4.6 18 4.6 2.4 0 2.7-.4 2.7-3.3 0-3.5-2.2-6.8-5.7-8.6-3.1-1.6-11.3-1.3-14.5.5z"/></svg>