<?xml version="1.0" encoding="UTF-8" standalone="no"?>
<!-- Generator: Adobe Illustrator 17.0.1, SVG Export Plug-In . SVG Version: 6.00 Build 0)  -->

<svg
   xmlns:dc="http://purl.org/dc/elements/1.1/"
   xmlns:cc="http://creativecommons.org/ns#"
   xmlns:rdf="http://www.w3.org/1999/02/22-rdf-syntax-ns#"
   xmlns:svg="http://www.w3.org/2000/svg"
   xmlns="http://www.w3.org/2000/svg"
   xmlns:sodipodi="http://sodipodi.sourceforge.net/DTD/sodipodi-0.dtd"
   xmlns:inkscape="http://www.inkscape.org/namespaces/inkscape"
   version="1.1"
   id="Layer_1"
   x="0px"
   y="0px"
   width="185px"
   height="188px"
   viewBox="0 0 185 188"
   enable-background="new 0 0 185 188"
   xml:space="preserve"
   sodipodi:docname="logos.svg"
   inkscape:version="0.92.1 r15371"
   inkscape:export-filename="/home/mahir/Downloads/nginx-portable/html/zeppelin/img/sprites/logos.png"
   inkscape:export-xdpi="395.41623"
   inkscape:export-ydpi="395.41623"><metadata
     id="metadata681"><rdf:RDF><cc:Work
         rdf:about=""><dc:format>image/svg+xml</dc:format><dc:type
           rdf:resource="http://purl.org/dc/dcmitype/StillImage" /><dc:title></dc:title></cc:Work></rdf:RDF></metadata><defs
     id="defs679" /><sodipodi:namedview
     pagecolor="#ffffff"
     bordercolor="#666666"
     borderopacity="1"
     objecttolerance="10"
     gridtolerance="10"
     guidetolerance="10"
     inkscape:pageopacity="0"
     inkscape:pageshadow="2"
     inkscape:window-width="1366"
     inkscape:window-height="705"
     id="namedview677"
     showgrid="false"
     inkscape:zoom="2.1814996"
     inkscape:cx="52.202615"
     inkscape:cy="93.404847"
     inkscape:window-x="-8"
     inkscape:window-y="-8"
     inkscape:window-maximized="1"
     inkscape:current-layer="g522"
     showguides="true"
     inkscape:guide-bbox="true"><sodipodi:guide
       position="151.399,71.115"
       orientation="0,1"
       id="guide1418"
       inkscape:locked="false" /><sodipodi:guide
       position="153.83,134.114"
       orientation="0,1"
       id="guide1420"
       inkscape:locked="false" /><sodipodi:guide
       position="159.18,8.115"
       orientation="0,1"
       id="guide1422"
       inkscape:locked="false" /><sodipodi:guide
       position="57.777587,146.42931"
       orientation="1,0"
       id="guide4624"
       inkscape:locked="false" /><sodipodi:guide
       position="171.4417,86.17925"
       orientation="1,0"
       id="guide4636"
       inkscape:locked="false" /></sodipodi:namedview><g
     id="g522"><radialGradient
       id="SVGID_1_"
       cx="-310.583"
       cy="-60.055"
       r="20.1137"
       gradientTransform="matrix(0.498 0 0 0.498 172.2891 79.7388)"
       gradientUnits="userSpaceOnUse"><stop
         offset="0"
         style="stop-color:#FFCF4F"
         id="stop494" /><stop
         offset="1"
         style="stop-color:#F4C236"
         id="stop496" /></radialGradient><radialGradient
       id="SVGID_2_"
       cx="-322.6347"
       cy="-70.2695"
       r="27.6582"
       gradientTransform="matrix(0.498 0 0 0.498 172.2891 79.7388)"
       gradientUnits="userSpaceOnUse"><stop
         offset="0"
         style="stop-color:#08A960"
         id="stop501" /><stop
         offset="1"
         style="stop-color:#07914B"
         id="stop503" /></radialGradient><radialGradient
       id="SVGID_3_"
       cx="-313.1831"
       cy="-109.9511"
       r="40.54"
       gradientTransform="matrix(0.498 0 0 0.498 172.2891 79.7388)"
       gradientUnits="userSpaceOnUse"><stop
         offset="0"
         style="stop-color:#567FC0"
         id="stop508" /><stop
         offset="1"
         style="stop-color:#557FC0"
         id="stop510" /></radialGradient><radialGradient
       id="SVGID_4_"
       cx="-301.1191"
       cy="-119.9164"
       r="33.0584"
       gradientTransform="matrix(0.498,0,0,0.498,172.2881,79.7378)"
       gradientUnits="userSpaceOnUse"><stop
         offset="0"
         style="stop-color:#E14C40"
         id="stop515" /><stop
         offset="1"
         style="stop-color:#CD392D"
         id="stop517" /></radialGradient><path
       style="fill:#af532c;fill-opacity:0.94117647;stroke-width:0.00633742"
       d="m 29.262015,61.642057 c 0.145007,-4.169115 -1.881847,-8.767386 -3.32081,-11.679875 -2.441301,-4.849918 -5.603421,-9.54243 -8.479473,-13.625461 -1.315392,-1.931832 -2.330664,-3.982919 -2.839169,-6.052238 -0.473657,-2.192824 -0.57603,-4.699359 0.190125,-6.749359 0.234485,-0.627408 0.678103,-1.520981 0.754153,-1.520981 1.599514,1.348853 3.101991,1.579889 4.892494,1.451268 0.02536,0.02536 -0.145762,0.291525 -0.386588,0.583045 -1.616044,1.989949 -2.452581,4.372822 -2.338504,6.685982 0.03801,0.811192 0.190121,1.381559 0.72246,2.687069 0.316875,0.76683 1.40691,3.029285 1.546336,3.206739 0.74076,1.303923 1.587837,2.716439 2.306824,3.827799 1.97094,3.035631 4.074961,7.085242 5.304422,10.203252 0.798515,2.008968 1.280161,3.593327 1.698429,5.576939 0.107735,0.513327 0.304198,1.920236 0.354897,2.534967 0.06584,0.496629 -0.0091,0.910627 0.126749,0.126749 0.991594,-6.004523 -1.665606,-12.322528 -4.100316,-16.496316 0.746306,0.310166 2.436603,0.499583 3.273063,0.416524 l 0.320258,0.648166 c 1.912174,5.56873 2.380521,11.069231 0.760492,16.699108 -0.235489,0.631623 -0.863728,2.754009 -0.785842,1.476623 z"
       id="path65"
       inkscape:connector-curvature="0"
       sodipodi:nodetypes="ccccccccccccccccccccc" /><path
       style="fill:#af532c;fill-opacity:1;stroke-width:0.00633742"
       d="m 26.999554,41.805919 c -0.760488,-0.08872 -1.565344,-0.39926 -2.091348,-0.798516 -0.487981,-0.37391 -1.026662,-1.001313 -1.254811,-1.457609 -0.513331,-1.039335 -0.804851,-2.243446 -0.804851,-3.371508 0,-1.62238 0.526004,-3.403195 1.508303,-5.133315 3.67008,-5.284337 7.263645,-8.648546 12.053781,-11.965054 l 0.855556,-0.583045 c 0.04158,-0.220608 0.106741,-0.445179 0.126749,-0.66543 -0.03168,0 -0.963291,0.430946 -1.425923,0.659094 -2.691769,1.368193 -5.272073,2.814507 -7.668281,4.480557 -2.623693,1.831514 -5.29175,4.537598 -6.666973,6.762031 -0.58304,0.931605 -1.216785,2.325838 -1.387896,3.022953 -0.107736,0.456296 -0.196463,0.532345 -0.354897,0.304198 -0.348555,-0.481646 -0.747816,-1.451274 -0.975963,-2.332174 -0.259834,-1.020327 -0.08238,-2.433572 0.456295,-3.64402 0.475309,-1.071026 1.324524,-2.332168 2.142048,-3.200396 1.09004,-1.14074 4.467884,-3.663034 6.255041,-4.664347 5.26264,-2.89096 11.467501,-5.171169 17.168081,-5.849444 2.433568,-0.253493 2.401887,-0.253493 2.718756,-0.107736 0.310534,0.133085 0.437283,0.329547 0.373906,0.583045 -0.04438,0.177448 -0.335884,0.61473 -0.500654,0.760493 -0.938339,0.330424 -1.647541,0.478814 -2.576718,0.75434 0.01025,0.112021 0.05035,0.336261 0.05035,0.336261 0.830206,-0.18379 1.702501,-0.526576 1.7532,-0.475876 0.101399,0.101404 -0.842878,0.71613 -2.623693,1.70477 -3.528266,2.258329 -7.445337,5.060062 -9.531487,8.32104 -2.39199,4.102198 -2.828119,7.428884 -2.813819,11.508763 0,2.31316 -1.039335,4.100311 -2.769456,4.753063 -0.690775,0.266176 -1.419581,0.373911 -2.015299,0.297862 z"
       id="path67"
       inkscape:connector-curvature="0"
       sodipodi:nodetypes="cccscccccccccccccccscccsccccc" /><path
       style="fill:#ac8230;fill-opacity:1;stroke-width:0.00633742"
       d="M 18.000413,22.109201 C 17.208234,21.931757 16.783624,21.773318 16.0168,21.348713 15.1359,20.860731 13.811375,19.643948 13.30438,18.870782 12.968497,18.351109 12.543887,17.463873 12.493188,17.178689 12.467833,17.05194 12.391788,16.8935 12.322081,16.830128 9.848338,15.457155 6.7258271,15.513981 3.8996419,15.676717 c -3.9388094,0.314181 1.8859992,-0.712859 2.2180977,-0.760488 2.4589214,-0.342224 3.2004014,-0.392924 5.1079644,-0.37391 0.918928,0.0127 1.679421,0.0063 1.692094,-0.0063 0.01903,-0.01897 0.13942,-0.177448 0.272511,-0.361232 0.26617,-0.354897 0.9316,-0.874565 1.451268,-1.14074 0.842878,-0.424605 1.774478,-0.60839 3.137024,-0.614731 1.368882,-0.0063 2.262465,0.177454 3.251101,0.671772 1.362546,0.69078 2.458917,2.040648 2.832828,3.510929 0.13942,0.545022 0.164771,1.400573 0.05704,1.939255 -0.247156,1.254811 -1.28016,2.57933 -2.433567,3.118011 -1.002834,0.498532 -2.42617,0.659242 -3.485585,0.449959 z m 0.538681,-2.509616 c 0.912586,-0.316875 1.368883,-0.640081 1.742792,-1.229462 0.323206,-0.513331 0.437283,-0.975963 0.386584,-1.590694 -0.03801,-0.50699 -0.06338,-0.602053 -0.278848,-1.102712 -0.285184,-0.659089 -1.033004,-1.43226 -1.799828,-1.863201 -0.66543,-0.373909 -1.559009,-0.608394 -2.300487,-0.608394 -0.411933,0 -1.052014,0.09506 -1.267484,0.183785 -0.06971,0.03168 -0.228148,0.09506 -0.348561,0.139421 -1.007649,0.367574 -1.717437,1.508309 -1.628716,2.623698 0.114072,1.495631 1.368883,2.883527 3.05464,3.377845 0.247161,0.07605 0.557689,0.145762 0.697115,0.158435 0.42461,0.05071 1.508309,-0.0063 1.742793,-0.08872 z m -5.899955,-4.244982 0.08459,-0.392868 c -1.412343,-9.9e-4 -1.360796,-0.128865 -0.08459,0.392868 z"
       id="path69"
       inkscape:connector-curvature="0"
       sodipodi:nodetypes="ccccccccscccccccccccccsccccccccc" /><path
       style="fill:#8c3911;fill-opacity:1;stroke-width:0.00633742"
       d="m 14.242316,16.570294 c -0.399254,-0.158434 -0.646411,-0.545016 -0.646411,-0.994976 0.02122,-0.645575 0.649667,-1.03453 1.166084,-1.039336 0.980157,-0.0021 1.272809,1.193521 1.013985,1.641394 -0.258818,0.447873 -0.950613,0.63374 -1.533658,0.392918 z"
       id="path71"
       inkscape:connector-curvature="0"
       sodipodi:nodetypes="ccczc" /><path
       style="fill:#1a1a1a;fill-opacity:0.94117647;stroke-width:0.00633742"
       d="m 29.262015,124.64106 c 0.145007,-4.16912 -1.881847,-8.76739 -3.32081,-11.67988 -2.441301,-4.84992 -5.603421,-9.54243 -8.479473,-13.625459 -1.315392,-1.931832 -2.330664,-3.982919 -2.839169,-6.052238 -0.473657,-2.192824 -0.57603,-4.699359 0.190125,-6.749359 0.234485,-0.627408 0.678103,-1.520981 0.754153,-1.520981 1.599514,1.348853 3.101991,1.579889 4.892494,1.451268 0.02536,0.02536 -0.145762,0.291525 -0.386588,0.583045 -1.616044,1.989949 -2.452581,4.372822 -2.338504,6.685982 0.03801,0.811192 0.190121,1.381559 0.72246,2.687069 0.316875,0.76683 1.40691,3.029285 1.546336,3.206739 0.74076,1.303924 1.587837,2.716434 2.306824,3.827794 1.97094,3.03564 4.074961,7.08525 5.304422,10.20326 0.798515,2.00896 1.280161,3.59332 1.698429,5.57694 0.107735,0.51332 0.304198,1.92023 0.354897,2.53496 0.06584,0.49663 -0.0091,0.91063 0.126749,0.12675 0.991594,-6.00452 -1.665606,-12.32253 -4.100316,-16.49631 0.746306,0.31016 2.436603,0.49958 3.273063,0.41652 l 0.320258,0.64817 c 1.912174,5.56873 2.380521,11.06923 0.760492,16.6991 -0.235489,0.63163 -0.863728,2.75401 -0.785842,1.47663 z"
       id="path65-1"
       inkscape:connector-curvature="0"
       sodipodi:nodetypes="ccccccccccccccccccccc" /><path
       style="fill:#4d4d4d;fill-opacity:1;stroke-width:0.00633742"
       d="m 26.999554,104.80492 c -0.760488,-0.0887 -1.565344,-0.39926 -2.091348,-0.79852 -0.487981,-0.37391 -1.026662,-1.00131 -1.254811,-1.45761 -0.513331,-1.03933 -0.804851,-2.24344 -0.804851,-3.371504 0,-1.62238 0.526004,-3.403195 1.508303,-5.133315 3.67008,-5.284337 7.263645,-8.648546 12.053781,-11.965054 l 0.855556,-0.583045 c 0.04158,-0.220608 0.106741,-0.445179 0.126749,-0.66543 -0.03168,0 -0.963291,0.430946 -1.425923,0.659094 -2.691769,1.368193 -5.272073,2.814507 -7.668281,4.480557 -2.623693,1.831514 -5.29175,4.537598 -6.666973,6.762031 -0.58304,0.931605 -1.216785,2.325838 -1.387896,3.022953 -0.107736,0.456296 -0.196463,0.532345 -0.354897,0.304198 -0.348555,-0.481646 -0.747816,-1.451274 -0.975963,-2.332174 -0.259834,-1.020327 -0.08238,-2.433572 0.456295,-3.64402 0.475309,-1.071026 1.324524,-2.332168 2.142048,-3.200396 1.09004,-1.14074 4.467884,-3.663034 6.255041,-4.664347 5.26264,-2.89096 11.467501,-5.171169 17.168081,-5.849444 2.433568,-0.253493 2.401887,-0.253493 2.718756,-0.107736 0.310534,0.133085 0.437283,0.329547 0.373906,0.583045 -0.04438,0.177448 -0.335884,0.61473 -0.500654,0.760493 -0.938339,0.330424 -1.647541,0.478814 -2.576718,0.75434 0.01025,0.112021 0.05035,0.336261 0.05035,0.336261 0.830206,-0.18379 1.702501,-0.526576 1.7532,-0.475876 0.101399,0.101404 -0.842878,0.71613 -2.623693,1.70477 -3.528266,2.258329 -7.445337,5.060062 -9.531487,8.32104 -2.39199,4.102198 -2.828119,7.428884 -2.813819,11.508763 0,2.313156 -1.039335,4.100306 -2.769456,4.753066 -0.690775,0.26617 -1.419581,0.37391 -2.015299,0.29786 z"
       id="path67-9"
       inkscape:connector-curvature="0"
       sodipodi:nodetypes="cccscccccccccccccccscccsccccc" /><path
       style="fill:#4d4d4d;fill-opacity:1;stroke-width:0.00633742"
       d="M 18.000413,85.108201 C 17.208234,84.930757 16.783624,84.772318 16.0168,84.347713 15.1359,83.859731 13.811375,82.642948 13.30438,81.869782 12.968497,81.350109 12.543887,80.462873 12.493188,80.177689 12.467838,80.05094 12.391788,79.8925 12.322081,79.829128 9.8483383,78.456155 6.7258273,78.512981 3.8996423,78.675717 c -3.9388098,0.314181 1.885999,-0.712859 2.218097,-0.760488 2.458922,-0.342224 3.200402,-0.392924 5.1079647,-0.37391 0.918928,0.0127 1.679421,0.0063 1.692094,-0.0063 0.01903,-0.01897 0.13942,-0.177448 0.272511,-0.361232 0.26617,-0.354897 0.9316,-0.874565 1.451268,-1.14074 0.842878,-0.424605 1.774478,-0.60839 3.137024,-0.614731 1.368882,-0.0063 2.262465,0.177454 3.251101,0.671772 1.362546,0.69078 2.458917,2.040648 2.832828,3.510929 0.13942,0.545022 0.164771,1.400573 0.05704,1.939255 -0.247156,1.254811 -1.28016,2.57933 -2.433567,3.118011 -1.002834,0.498532 -2.42617,0.659242 -3.485585,0.449959 z m 0.538681,-2.509616 c 0.912586,-0.316875 1.368883,-0.640081 1.742792,-1.229462 0.323206,-0.513331 0.437283,-0.975963 0.386584,-1.590694 -0.03801,-0.50699 -0.06338,-0.602053 -0.278848,-1.102712 -0.285184,-0.659089 -1.033004,-1.43226 -1.799828,-1.863201 -0.66543,-0.373909 -1.559009,-0.608394 -2.300487,-0.608394 -0.411933,0 -1.052014,0.09506 -1.267484,0.183785 -0.06971,0.03168 -0.228148,0.09506 -0.348561,0.139421 -1.007649,0.367574 -1.717437,1.508309 -1.628716,2.623698 0.114072,1.495631 1.368883,2.883527 3.05464,3.377845 0.247161,0.07605 0.557689,0.145762 0.697115,0.158435 0.42461,0.05071 1.508309,-0.0063 1.742793,-0.08872 z m -5.899955,-4.244982 0.08459,-0.392868 c -1.412343,-9.9e-4 -1.360796,-0.128865 -0.08459,0.392868 z"
       id="path69-7"
       inkscape:connector-curvature="0"
       sodipodi:nodetypes="ccccccccscccccccccccccsccccccccc" /><path
       style="fill:#000000;fill-opacity:1;stroke-width:0.00633742"
       d="m 14.242316,79.569294 c -0.399254,-0.158434 -0.646411,-0.545016 -0.646411,-0.994976 0.02122,-0.645575 0.649667,-1.03453 1.166084,-1.039336 0.980157,-0.0021 1.272809,1.193521 1.013985,1.641394 -0.258818,0.447873 -0.950613,0.63374 -1.533658,0.392918 z"
       id="path71-1"
       inkscape:connector-curvature="0"
       sodipodi:nodetypes="ccczc" /><path
       style="fill:#b3b3b3;fill-opacity:0.94117647;stroke-width:0.00633742;opacity:0.447"
       d="m 29.420015,187.64106 c 0.145007,-4.16912 -1.881847,-8.76739 -3.32081,-11.67988 -2.441301,-4.84992 -5.603421,-9.54243 -8.479473,-13.62546 -1.315392,-1.93183 -2.330664,-3.98292 -2.839169,-6.05224 -0.473657,-2.19282 -0.57603,-4.69936 0.190125,-6.74936 0.234485,-0.6274 0.678103,-1.52098 0.754153,-1.52098 1.599514,1.34886 3.101991,1.57989 4.892494,1.45127 0.02536,0.0254 -0.145762,0.29153 -0.386588,0.58305 -1.616044,1.98995 -2.452581,4.37282 -2.338504,6.68598 0.03801,0.81119 0.190121,1.38156 0.72246,2.68707 0.316875,0.76683 1.40691,3.02928 1.546336,3.20674 0.74076,1.30392 1.587837,2.71644 2.306824,3.8278 1.97094,3.03563 4.074961,7.08524 5.304422,10.20325 0.798515,2.00896 1.280161,3.59332 1.698429,5.57694 0.107735,0.51332 0.304198,1.92023 0.354897,2.53496 0.06584,0.49663 -0.0091,0.91063 0.126749,0.12675 0.991594,-6.00452 -1.665606,-12.32253 -4.100316,-16.49631 0.746306,0.31016 2.436603,0.49958 3.273063,0.41652 l 0.320258,0.64817 c 1.912174,5.56873 2.380521,11.06923 0.760492,16.6991 -0.235489,0.63163 -0.863728,2.75401 -0.785842,1.47663 z"
       id="path65-1-1"
       inkscape:connector-curvature="0"
       sodipodi:nodetypes="ccccccccccccccccccccc" /><path
       style="fill:#b3b3b3;fill-opacity:1;stroke-width:0.00633742;opacity:0.69"
       d="m 27.157554,167.80492 c -0.760488,-0.0887 -1.565344,-0.39926 -2.091348,-0.79852 -0.487981,-0.37391 -1.026662,-1.00131 -1.254811,-1.45761 -0.513331,-1.03933 -0.804851,-2.24344 -0.804851,-3.3715 0,-1.62238 0.526004,-3.4032 1.508303,-5.13332 3.67008,-5.28434 7.263645,-8.64854 12.053781,-11.96505 l 0.855556,-0.58305 c 0.04158,-0.22061 0.106741,-0.44518 0.126749,-0.66543 -0.03168,0 -0.963291,0.43095 -1.425923,0.6591 -2.691769,1.36819 -5.272073,2.8145 -7.668281,4.48055 -2.623693,1.83152 -5.29175,4.5376 -6.666973,6.76203 -0.58304,0.93161 -1.216785,2.32584 -1.387896,3.02296 -0.107736,0.45629 -0.196463,0.53234 -0.354897,0.3042 -0.348555,-0.48165 -0.747816,-1.45128 -0.975963,-2.33218 -0.259834,-1.02033 -0.08238,-2.43357 0.456295,-3.64402 0.475309,-1.07102 1.324524,-2.33217 2.142048,-3.20039 1.09004,-1.14074 4.467884,-3.66304 6.255041,-4.66435 5.26264,-2.89096 11.467501,-5.17117 17.168081,-5.84945 2.433568,-0.25349 2.401887,-0.25349 2.718756,-0.10773 0.310534,0.13308 0.437283,0.32955 0.373906,0.58304 -0.04438,0.17745 -0.335884,0.61473 -0.500654,0.7605 -0.938339,0.33042 -1.647541,0.47881 -2.576718,0.75434 0.01025,0.11202 0.05035,0.33626 0.05035,0.33626 0.830206,-0.18379 1.702501,-0.52658 1.7532,-0.47588 0.101399,0.10141 -0.842878,0.71613 -2.623693,1.70477 -3.528266,2.25833 -7.445337,5.06006 -9.531487,8.32104 -2.39199,4.1022 -2.828119,7.42889 -2.813819,11.50876 0,2.31316 -1.039335,4.10032 -2.769456,4.75307 -0.690775,0.26617 -1.419581,0.37391 -2.015299,0.29786 z"
       id="path67-9-2"
       inkscape:connector-curvature="0"
       sodipodi:nodetypes="cccscccccccccccccccscccsccccc" /><path
       style="fill:#b3b3b3;fill-opacity:1;stroke-width:0.00633742;opacity:0.816"
       d="m 18.158413,148.1082 c -0.792179,-0.17744 -1.216789,-0.33588 -1.983613,-0.76049 -0.8809,-0.48798 -2.205425,-1.70476 -2.71242,-2.47793 -0.335883,-0.51967 -0.760493,-1.40691 -0.811192,-1.69209 -0.02535,-0.12675 -0.1014,-0.28519 -0.171107,-0.34856 -2.473743,-1.37297 -5.596254,-1.31615 -8.422439,-1.15341 -3.938809,0.31418 1.885999,-0.71286 2.218097,-0.76049 2.458922,-0.34222 3.200402,-0.39292 5.107965,-0.37391 0.918928,0.0127 1.679421,0.006 1.692094,-0.006 0.01903,-0.019 0.13942,-0.17745 0.272511,-0.36123 0.26617,-0.3549 0.9316,-0.87457 1.451268,-1.14074 0.842878,-0.42461 1.774478,-0.60839 3.137024,-0.61473 1.368882,-0.006 2.262465,0.17745 3.251101,0.67177 1.362546,0.69078 2.458917,2.04065 2.832828,3.51093 0.13942,0.54502 0.164771,1.40057 0.05704,1.93925 -0.247156,1.25481 -1.28016,2.57933 -2.433567,3.11801 -1.002834,0.49854 -2.42617,0.65925 -3.485585,0.44996 z m 0.538681,-2.50961 c 0.912586,-0.31688 1.368883,-0.64009 1.742792,-1.22947 0.323206,-0.51333 0.437283,-0.97596 0.386584,-1.59069 -0.03801,-0.50699 -0.06338,-0.60205 -0.278848,-1.10271 -0.285184,-0.65909 -1.033004,-1.43226 -1.799828,-1.8632 -0.66543,-0.37391 -1.559009,-0.6084 -2.300487,-0.6084 -0.411933,0 -1.052014,0.0951 -1.267484,0.18379 -0.06971,0.0317 -0.228148,0.0951 -0.348561,0.13942 -1.007649,0.36757 -1.717437,1.50831 -1.628716,2.6237 0.114072,1.49563 1.368883,2.88352 3.05464,3.37784 0.247161,0.0761 0.557689,0.14576 0.697115,0.15844 0.42461,0.0507 1.508309,-0.006 1.742793,-0.0887 z m -5.899955,-4.24499 0.08459,-0.39286 c -1.412343,-9.9e-4 -1.360796,-0.12887 -0.08459,0.39286 z"
       id="path69-7-8"
       inkscape:connector-curvature="0"
       sodipodi:nodetypes="ccccccccscccccccccccccsccccccccc" /><path
       style="fill:#cccccc;fill-opacity:1;stroke-width:0.00633742"
       d="m 14.400316,142.56929 c -0.399254,-0.15843 -0.646411,-0.54501 -0.646411,-0.99497 0.02122,-0.64558 0.649667,-1.03453 1.166084,-1.03934 0.980157,-0.002 1.272809,1.19352 1.013985,1.6414 -0.258818,0.44787 -0.950613,0.63374 -1.533658,0.39291 z"
       id="path71-1-9"
       inkscape:connector-curvature="0"
       sodipodi:nodetypes="ccczc" /><rect
       style="fill:#f2f2f2;stroke:#000000;stroke-opacity:0"
       id="rect111"
       width="5.3480768"
       height="4.2683902"
       x="107.26566"
       y="49.617611" /><text
       xml:space="preserve"
       style="font-style:normal;font-weight:normal;font-size:26.82728386px;line-height:1.25;font-family:sans-serif;letter-spacing:0px;word-spacing:0px;fill:#000000;fill-opacity:1;stroke:none;stroke-width:0.67068207"
       x="56.269268"
       y="31.34808"
       id="text123"><tspan
         sodipodi:role="line"
         id="tspan121"
         x="56.269268"
         y="31.34808"
         style="font-style:normal;font-variant:normal;font-weight:normal;font-stretch:normal;font-family:'Century Gothic';-inkscape-font-specification:'Century Gothic';letter-spacing:-0.77999997px;stroke-width:0.67068207;fill:#803300"
         dx="0">QUASSO</tspan><tspan
         sodipodi:role="line"
         x="56.269268"
         y="65.001717"
         style="font-style:normal;font-variant:normal;font-weight:normal;font-stretch:normal;font-size:23.25031471px;font-family:'Century Gothic';-inkscape-font-specification:'Century Gothic';letter-spacing:-0.77999997px;stroke-width:0.67068207;fill:#000000;fill-opacity:0.70351762"
         id="tspan125"
         dy="-11.550008">LIBERUM 7</tspan></text>
<text
       xml:space="preserve"
       style="font-style:normal;font-weight:normal;font-size:26.82728386px;line-height:1.25;font-family:sans-serif;letter-spacing:0px;word-spacing:0px;fill:#4d4d4d;fill-opacity:1;stroke:none;stroke-width:0.67068207;"
       x="56.091236"
       y="94.934952"
       id="text123-9"><tspan
         sodipodi:role="line"
         id="tspan121-3"
         x="56.091236"
         y="94.934952"
         style="font-style:normal;font-variant:normal;font-weight:normal;font-stretch:normal;font-family:'Century Gothic';-inkscape-font-specification:'Century Gothic';letter-spacing:-0.77999997px;stroke-width:0.67068207;fill:#4d4d4d;fill-opacity:0.87939698"
         dx="0">QUASSO</tspan><tspan
         sodipodi:role="line"
         x="56.091236"
         y="128.58859"
         style="font-style:normal;font-variant:normal;font-weight:normal;font-stretch:normal;font-size:23.25031471px;font-family:'Century Gothic';-inkscape-font-specification:'Century Gothic';letter-spacing:-0.77999997px;stroke-width:0.67068207;fill:#4d4d4d;fill-opacity:0.68844223"
         id="tspan125-7"
         dy="-11.550008">LIBERUM 7</tspan></text>
<text
       xml:space="preserve"
       style="font-style:normal;font-weight:normal;font-size:40px;line-height:1.25;font-family:sans-serif;letter-spacing:0px;word-spacing:0px;fill:#000000;fill-opacity:1;stroke:none"
       x="152.52568"
       y="157.28171"
       id="text1008"><tspan
         sodipodi:role="line"
         id="tspan1006"
         x="152.52568"
         y="193.77492" /></text>
<text
       xml:space="preserve"
       style="font-style:normal;font-weight:normal;font-size:26.82728386px;line-height:1.25;font-family:sans-serif;letter-spacing:0px;word-spacing:0px;fill:#b4b4b4;fill-opacity:0.6901961;stroke:none;stroke-width:0.67068207;"
       x="56.091244"
       y="157.27739"
       id="text123-9-3"
       inkscape:transform-center-x="84.34565"
       inkscape:transform-center-y="-30.712818"><tspan
         sodipodi:role="line"
         id="tspan121-3-1"
         x="56.091244"
         y="157.27739"
         style="font-style:normal;font-variant:normal;font-weight:normal;font-stretch:normal;font-family:'Century Gothic';-inkscape-font-specification:'Century Gothic';letter-spacing:-0.77999997px;fill:#b4b4b4;fill-opacity:0.84422112;stroke-width:0.67068207"
         dx="0">QUASSO</tspan><tspan
         sodipodi:role="line"
         x="56.091244"
         y="190.93102"
         style="font-style:normal;font-variant:normal;font-weight:normal;font-stretch:normal;font-size:23.25031471px;font-family:'Century Gothic';-inkscape-font-specification:'Century Gothic';letter-spacing:-0.77999997px;fill:#b4b4b4;fill-opacity:0.6901961;stroke-width:0.67068207;"
         id="tspan125-7-7"
         dy="-11.550008">LIBERUM 7</tspan></text>
</g><text
     xml:space="preserve"
     style="font-style:normal;font-weight:normal;font-size:40px;line-height:1.25;font-family:sans-serif;letter-spacing:0px;word-spacing:0px;fill:#000000;fill-opacity:1;stroke:none"
     x="-54.091232"
     y="53.886002"
     id="text166"><tspan
       sodipodi:role="line"
       id="tspan164"
       x="-54.091232"
       y="90.379211"></tspan></text>
</svg>